<?xml version="1.0" encoding="utf-8"?>
<!-- Generator: Adobe Illustrator 21.0.0, SVG Export Plug-In . SVG Version: 6.00 Build 0)  -->
<svg version="1.1" id="Layer_1" xmlns="http://www.w3.org/2000/svg" xmlns:xlink="http://www.w3.org/1999/xlink" x="0px" y="0px"
	 viewBox="0 0 80 80" style="enable-background:new 0 0 80 80;" xml:space="preserve">
<style type="text/css">
	.st0{fill:#EC0874;}
</style>
<g>
	<path class="st0" d="M56.3,20.7H45.9v57.8c0,0.8-0.6,1.5-1.5,1.5h-8.9c-0.8,0-1.5-0.6-1.5-1.5V20.7H23.7c-0.6,0-1.1-0.3-1.3-0.9
		c-0.2-0.6-0.1-1.2,0.2-1.6L38.8,0.5C39.1,0.2,39.4,0,39.9,0c0.4,0,0.8,0.2,1.1,0.5l16.4,17.8c0.4,0.5,0.5,1.1,0.2,1.6
		C57.4,20.4,56.9,20.7,56.3,20.7z"/>
</g>
</svg>
