<?xml version="1.0" encoding="utf-8"?>
<!-- Generator: Adobe Illustrator 21.0.0, SVG Export Plug-In . SVG Version: 6.00 Build 0)  -->
<svg version="1.1" id="Layer_1" xmlns="http://www.w3.org/2000/svg" xmlns:xlink="http://www.w3.org/1999/xlink" x="0px" y="0px"
	 viewBox="0 0 80 80" style="enable-background:new 0 0 80 80;" xml:space="preserve">
<style type="text/css">
	.st0{fill:#FFFFFF;}
</style>
<g>
	<path class="st0" d="M80,65c0,8.3-6.7,15-15,15H15C6.7,80,0,73.3,0,65V15C0,6.7,6.7,0,15,0h50c8.3,0,15,6.7,15,15V65z M18.4,13.4
		c-4.1,0-6.8,2.7-6.8,6.3c0,3.4,2.6,6.2,6.7,6.2h0.1c4.2,0,6.8-2.8,6.8-6.2C25.1,16.1,22.6,13.4,18.4,13.4z M24.4,67V30.8h-12V67
		H24.4z M67.7,67V46.2c0-11.1-5.9-16.2-13.9-16.2c-6.5,0-9.3,3.6-10.9,6.1H43v-5.3H31c0,0,0.2,3.4,0,36.1h12V46.8c0-1,0-2.1,0.4-2.9
		c0.9-2.1,2.9-4.4,6.2-4.4c4.3,0,6,3.3,6,8.2V67H67.7z"/>
</g>
</svg>
