<?xml version="1.0" encoding="utf-8"?>
<!-- Generator: Adobe Illustrator 21.0.0, SVG Export Plug-In . SVG Version: 6.00 Build 0)  -->
<svg version="1.1" id="Layer_1" xmlns="http://www.w3.org/2000/svg" xmlns:xlink="http://www.w3.org/1999/xlink" x="0px" y="0px"
	 viewBox="0 0 200 76.7" style="enable-background:new 0 0 200 76.7;" xml:space="preserve">
<style type="text/css">
	.st0{fill:#EC0874;}
</style>
<g>
	<g>
		<path class="st0" d="M102,76.7c-21.1,0-38.3-17.2-38.3-38.3C63.6,17.2,80.8,0,102,0c21.1,0,38.3,17.2,38.3,38.3
			C140.3,59.5,123.1,76.7,102,76.7z M102,1.4c-20.4,0-37,16.6-37,37c0,20.4,16.6,37,37,37c20.4,0,37-16.6,37-37
			C139,18,122.4,1.4,102,1.4z"/>
	</g>
	<g>
		<path class="st0" d="M6.9,40.2c0,0.1-0.1,0.1-0.2,0.1H4.6v9.4c0,0.1-0.1,0.1-0.2,0.1H2.5c-0.1,0-0.2-0.1-0.2-0.1v-9.4H0.2
			c-0.1,0-0.2-0.1-0.2-0.1v-1.7c0-0.1,0.1-0.1,0.2-0.1h6.6c0.1,0,0.2,0.1,0.2,0.1V40.2z"/>
		<path class="st0" d="M20.3,38.3c0.1,0,0.2,0.1,0.2,0.1v11.3c0,0.1-0.1,0.1-0.2,0.1h-1.9c-0.1,0-0.2-0.1-0.2-0.1v-4.6h-4.4v4.6
			c0,0.1-0.1,0.1-0.2,0.1h-1.9c-0.1,0-0.2-0.1-0.2-0.1V38.5c0-0.1,0.1-0.1,0.2-0.1h1.9c0.1,0,0.2,0.1,0.2,0.1V43h4.4v-4.5
			c0-0.1,0.1-0.1,0.2-0.1H20.3z"/>
		<path class="st0" d="M28.4,40.4V43H33c0.1,0,0.1,0.1,0.1,0.1V45c0,0.1-0.1,0.1-0.1,0.1h-4.5v2.6h5.5c0.1,0,0.2,0.1,0.2,0.1v1.9
			c0,0.1-0.1,0.1-0.2,0.1h-7.5c-0.1,0-0.2-0.1-0.2-0.1V38.5c0-0.1,0.1-0.1,0.2-0.1h7.4c0.1,0,0.2,0.1,0.2,0.1v1.8
			c0,0.1-0.1,0.1-0.2,0.1H28.4z"/>
		<path class="st0" d="M48.9,49.7c0,0.1-0.1,0.1-0.2,0.1h-1.9c0,0-0.1,0-0.1,0l-5.3-7.6v7.5c0,0.1-0.1,0.1-0.2,0.1h-1.9
			c-0.1,0-0.1-0.1-0.1-0.1V38.5c0-0.1,0.1-0.1,0.1-0.1h1.9c0,0,0.1,0,0.1,0l5.3,7.6v-7.5c0-0.1,0.1-0.1,0.2-0.1h1.9
			c0.1,0,0.2,0.1,0.2,0.1V49.7z"/>
	</g>
	<g>
		<path class="st0" d="M165,49.7c0,0.1-0.1,0.1-0.2,0.1H163c0,0-0.1,0-0.1,0l-5.3-7.6v7.5c0,0.1-0.1,0.1-0.2,0.1h-1.9
			c-0.1,0-0.1-0.1-0.1-0.1V38.5c0-0.1,0.1-0.1,0.1-0.1h1.9c0,0,0.1,0,0.1,0l5.3,7.6v-7.5c0-0.1,0.1-0.1,0.2-0.1h1.9
			c0.1,0,0.2,0.1,0.2,0.1V49.7z"/>
		<path class="st0" d="M170.5,42.5c0-2.4,2-4.3,4.3-4.3c2.4,0,4.3,2,4.3,4.3c0,2.4-2,4.3-4.3,4.3C172.4,46.8,170.5,44.9,170.5,42.5z
			 M178.6,49.7c0,0.1-0.1,0.1-0.2,0.1H171c-0.1,0-0.2-0.1-0.2-0.1v-1.9c0-0.1,0.1-0.1,0.2-0.1h7.4c0.1,0,0.2,0.1,0.2,0.1V49.7z
			 M172.6,42.5c0,1.2,1,2.2,2.2,2.2c1.2,0,2.2-1,2.2-2.2c0-1.2-1-2.2-2.2-2.2C173.6,40.3,172.6,41.3,172.6,42.5z"/>
		<path class="st0" d="M195.5,50.2c0,0.1-0.2,0.1-0.3,0l-3.4-8.9l-3.4,8.9c0,0.1-0.2,0.1-0.3,0l-4.5-11.7c0-0.1,0-0.2,0.1-0.2h2
			c0.1,0,0.1,0,0.1,0.1l2.3,6.2l2.4-6.2c0,0,0.1-0.1,0.1-0.1h2c0.1,0,0.1,0,0.1,0.1l2.4,6.2l2.3-6.2c0,0,0.1-0.1,0.1-0.1h2
			c0.1,0,0.2,0.1,0.1,0.2L195.5,50.2z"/>
	</g>
	<g>
		<path class="st0" d="M116.3,59.4l-5-5c-5.9,7.4-17.9,6.5-22.9-0.4c-4.1-5.9-2.9-13.4,2.7-18.4c-2.3-1.9-3.7-4.8-3.7-8
			c0-5.8,4.7-10.5,10.5-10.5c5.8,0,10.5,4.7,10.5,10.5c0,3.9-2.1,7.3-5.2,9.1l6.4,6.6v-8.1h11.2v6.3h-5.3v3.6c0,1.2-0.2,1.9-0.5,2.9
			l6.4,6.4L116.3,59.4z M94.3,49.6c2.5,3.4,8.9,4.1,12-0.2L96.6,40C93.3,42.2,91.8,46.2,94.3,49.6z M94,27.6c0,2.1,1.7,3.9,3.8,3.9
			s3.8-1.8,3.8-3.9s-1.7-3.8-3.8-3.8S94,25.5,94,27.6z"/>
	</g>
</g>
</svg>
