<?xml version="1.0" encoding="utf-8"?>
<!-- Generator: Adobe Illustrator 21.0.0, SVG Export Plug-In . SVG Version: 6.00 Build 0)  -->
<svg version="1.1" id="Layer_1" xmlns="http://www.w3.org/2000/svg" xmlns:xlink="http://www.w3.org/1999/xlink" x="0px" y="0px"
	 viewBox="0 0 80 80" style="enable-background:new 0 0 80 80;" xml:space="preserve">
<style type="text/css">
	.st0{fill:#FFFFFF;}
</style>
<g>
	<path class="st0" d="M80,65c0,8.3-6.7,15-15,15H15C6.7,80,0,73.3,0,65V15C0,6.7,6.7,0,15,0h50c8.3,0,15,6.7,15,15V65z M60.4,26.9
		c2.3-1.4,4-3.5,4.8-6.1c-2.1,1.3-4.5,2.2-7,2.7c-2-2.1-4.8-3.4-8-3.4c-6,0-10.9,4.9-10.9,10.9c0,0.8,0.1,1.7,0.3,2.5
		C30.5,33,22.4,28.6,17,22c-0.9,1.6-1.5,3.5-1.5,5.5c0,3.8,1.8,7.1,4.7,9.1c-1.8-0.1-3.5-0.6-5.2-1.4c0,0,0,0.1,0,0.1
		c0,5.3,4,9.7,9,10.7c-0.9,0.3-1.7,0.4-2.7,0.4c-0.7,0-1.4-0.1-2-0.2c1.4,4.3,5.4,7.5,10.2,7.6c-3.8,2.9-8.4,4.7-13.6,4.7
		c-0.9,0-1.8-0.1-2.6-0.2c4.8,3.1,10.6,4.9,16.8,4.9c20.1,0,31.1-16.7,31.1-31.1c0-0.5,0-0.9-0.1-1.4c2.1-1.5,4-3.4,5.5-5.7
		C64.7,26,62.6,26.6,60.4,26.9z"/>
</g>
</svg>
